<svg xmlns="http://www.w3.org/2000/svg" viewBox="0 0 800 800" font-family="'Segoe UI', Arial, sans-serif">
  <g class="plate-frame">
    <text class="plate-caption" x="400" y="32" text-anchor="middle" font-size="16" font-weight="600" fill="#334155">Medulla - sensory (internal arcuate) decussation (y = -42)</text>
    <circle cx="52" cy="52" r="17" fill="#f8fafc" stroke="#94a3b8" stroke-width="1.2"/><text x="52" y="57.5" text-anchor="middle" font-size="15" font-weight="700" fill="#475569">R</text>
    <circle cx="748" cy="52" r="17" fill="#f8fafc" stroke="#94a3b8" stroke-width="1.2"/><text x="748" y="57.5" text-anchor="middle" font-size="15" font-weight="700" fill="#475569">L</text>
    <circle cx="52" cy="748" r="17" fill="#f8fafc" stroke="#94a3b8" stroke-width="1.2"/><text x="52" y="753.5" text-anchor="middle" font-size="15" font-weight="700" fill="#475569">P</text>
    <circle cx="748" cy="748" r="17" fill="#f8fafc" stroke="#94a3b8" stroke-width="1.2"/><text x="748" y="753.5" text-anchor="middle" font-size="15" font-weight="700" fill="#475569">A</text>
  </g>
  <path data-role="outline" d="M 400 238 C 432 238 454 247 471 259 C 490 251 508 258 520 275 C 538 294 546 330 545 370 C 544 432 540 502 522 560 C 507 605 468 632 428 634 C 414 635 386 635 372 634 C 332 632 293 605 278 560 C 260 502 256 432 255 370 C 254 330 262 294 280 275 C 292 258 310 251 329 259 C 346 247 368 238 400 238 Z" fill="none" stroke="#0f172a" stroke-width="1.5"/>
  <circle cx="400" cy="336" r="5" fill="none" stroke="#0f172a" stroke-width="1.2"/>
  <g class="plate-midline"><line x1="400" y1="234" x2="400" y2="638" stroke="#0f172a" stroke-opacity="0.25" stroke-width="1" stroke-dasharray="4 5"/></g>
  <g class="plate-regions">
    <ellipse data-structure="nuc-medullary-reticular" cx="322" cy="420" rx="50" ry="55" stroke="#0f172a" stroke-width="1.5" stroke-linejoin="round"/>
    <ellipse data-structure="nuc-medullary-reticular" cx="478" cy="420" rx="50" ry="55" stroke="#0f172a" stroke-width="1.5" stroke-linejoin="round"/>
    <ellipse data-structure="tract-fasciculus-gracilis" cx="368" cy="256" rx="12" ry="17" stroke="#0f172a" stroke-width="1.5" stroke-linejoin="round"/>
    <ellipse data-structure="tract-fasciculus-gracilis" cx="432" cy="256" rx="12" ry="17" stroke="#0f172a" stroke-width="1.5" stroke-linejoin="round"/>
    <ellipse data-structure="nuc-nucleus-gracilis" cx="370" cy="296" rx="20" ry="26" stroke="#0f172a" stroke-width="1.5" stroke-linejoin="round"/>
    <ellipse data-structure="nuc-nucleus-gracilis" cx="430" cy="296" rx="20" ry="26" stroke="#0f172a" stroke-width="1.5" stroke-linejoin="round"/>
    <ellipse data-structure="tract-fasciculus-cuneatus" cx="310" cy="260" rx="13" ry="17" transform="rotate(-20 310 260)" stroke="#0f172a" stroke-width="1.5" stroke-linejoin="round"/>
    <ellipse data-structure="tract-fasciculus-cuneatus" cx="490" cy="260" rx="13" ry="17" transform="rotate(20 490 260)" stroke="#0f172a" stroke-width="1.5" stroke-linejoin="round"/>
    <ellipse data-structure="nuc-nucleus-cuneatus" cx="304" cy="300" rx="19" ry="24" stroke="#0f172a" stroke-width="1.5" stroke-linejoin="round"/>
    <ellipse data-structure="nuc-nucleus-cuneatus" cx="496" cy="300" rx="19" ry="24" stroke="#0f172a" stroke-width="1.5" stroke-linejoin="round"/>
    <ellipse data-structure="nuc-hypoglossal" cx="378" cy="342" rx="11" ry="18" stroke="#0f172a" stroke-width="1.5" stroke-linejoin="round"/>
    <ellipse data-structure="nuc-hypoglossal" cx="422" cy="342" rx="11" ry="18" stroke="#0f172a" stroke-width="1.5" stroke-linejoin="round"/>
    <ellipse data-structure="nuc-dmv" cx="342" cy="344" rx="10" ry="15" stroke="#0f172a" stroke-width="1.5" stroke-linejoin="round"/>
    <ellipse data-structure="nuc-dmv" cx="458" cy="344" rx="10" ry="15" stroke="#0f172a" stroke-width="1.5" stroke-linejoin="round"/>
    <ellipse data-structure="nuc-solitarius-caudal" cx="318" cy="334" rx="9" ry="12" stroke="#0f172a" stroke-width="1.5" stroke-linejoin="round"/>
    <ellipse data-structure="nuc-solitarius-caudal" cx="482" cy="334" rx="9" ry="12" stroke="#0f172a" stroke-width="1.5" stroke-linejoin="round"/>
    <path data-structure="tract-internal-arcuate" d="M 318 322 C 336 358 364 386 396 400 L 396 414 C 360 398 328 364 310 328 Z" stroke="#0f172a" stroke-width="1.5" stroke-linejoin="round"/>
    <path data-structure="tract-internal-arcuate" d="M 482 322 C 436 386 464 358 404 400 L 404 414 C 472 364 440 398 490 328 Z" stroke="#0f172a" stroke-width="1.5" stroke-linejoin="round"/>
    <ellipse data-structure="tract-medial-lemniscus" cx="372" cy="470" rx="17" ry="40" stroke="#0f172a" stroke-width="1.5" stroke-linejoin="round"/>
    <ellipse data-structure="tract-medial-lemniscus" cx="428" cy="470" rx="17" ry="40" stroke="#0f172a" stroke-width="1.5" stroke-linejoin="round"/>
    <ellipse data-structure="tract-pyramid" cx="362" cy="592" rx="30" ry="28" stroke="#0f172a" stroke-width="1.5" stroke-linejoin="round"/>
    <ellipse data-structure="tract-pyramid" cx="438" cy="592" rx="30" ry="28" stroke="#0f172a" stroke-width="1.5" stroke-linejoin="round"/>
    <ellipse data-structure="tract-mlf" cx="388" cy="374" rx="6" ry="12" stroke="#0f172a" stroke-width="1.5" stroke-linejoin="round"/>
    <ellipse data-structure="tract-mlf" cx="412" cy="374" rx="6" ry="12" stroke="#0f172a" stroke-width="1.5" stroke-linejoin="round"/>
    <ellipse data-structure="tract-posterior-spinocerebellar" cx="264" cy="324" rx="8" ry="13" transform="rotate(-10 264 324)" stroke="#0f172a" stroke-width="1.5" stroke-linejoin="round"/>
    <ellipse data-structure="tract-posterior-spinocerebellar" cx="536" cy="324" rx="8" ry="13" transform="rotate(10 536 324)" stroke="#0f172a" stroke-width="1.5" stroke-linejoin="round"/>
    <ellipse data-structure="tract-spinal-trigeminal" cx="284" cy="344" rx="11" ry="17" transform="rotate(-12 284 344)" stroke="#0f172a" stroke-width="1.5" stroke-linejoin="round"/>
    <ellipse data-structure="tract-spinal-trigeminal" cx="516" cy="344" rx="11" ry="17" transform="rotate(12 516 344)" stroke="#0f172a" stroke-width="1.5" stroke-linejoin="round"/>
    <ellipse data-structure="nuc-spinal-trigeminal" cx="302" cy="368" rx="10" ry="15" stroke="#0f172a" stroke-width="1.5" stroke-linejoin="round"/>
    <ellipse data-structure="nuc-spinal-trigeminal" cx="498" cy="368" rx="10" ry="15" stroke="#0f172a" stroke-width="1.5" stroke-linejoin="round"/>
    <ellipse data-structure="nuc-ambiguus" cx="296" cy="402" rx="9" ry="13" stroke="#0f172a" stroke-width="1.5" stroke-linejoin="round"/>
    <ellipse data-structure="nuc-ambiguus" cx="504" cy="402" rx="9" ry="13" stroke="#0f172a" stroke-width="1.5" stroke-linejoin="round"/>
    <ellipse data-structure="tract-corticospinal-lateral" cx="300" cy="462" rx="12" ry="15" stroke="#0f172a" stroke-width="1.5" stroke-linejoin="round"/>
    <ellipse data-structure="tract-corticospinal-lateral" cx="500" cy="462" rx="12" ry="15" stroke="#0f172a" stroke-width="1.5" stroke-linejoin="round"/>
    <ellipse data-structure="tract-spinothalamic" cx="280" cy="492" rx="10" ry="13" stroke="#0f172a" stroke-width="1.5" stroke-linejoin="round"/>
    <ellipse data-structure="tract-spinothalamic" cx="520" cy="492" rx="10" ry="13" stroke="#0f172a" stroke-width="1.5" stroke-linejoin="round"/>
    <ellipse data-structure="tract-anterior-spinocerebellar" cx="258" cy="452" rx="9" ry="14" stroke="#0f172a" stroke-width="1.5" stroke-linejoin="round"/>
    <ellipse data-structure="tract-anterior-spinocerebellar" cx="542" cy="452" rx="9" ry="14" stroke="#0f172a" stroke-width="1.5" stroke-linejoin="round"/>
    <ellipse data-structure="tract-reticulospinal" cx="345" cy="512" rx="11" ry="16" stroke="#0f172a" stroke-width="1.5" stroke-linejoin="round"/>
    <ellipse data-structure="tract-reticulospinal" cx="455" cy="512" rx="11" ry="16" stroke="#0f172a" stroke-width="1.5" stroke-linejoin="round"/>
    <ellipse data-structure="nuc-arcuate-medullary" cx="378" cy="628" rx="10" ry="6" stroke="#0f172a" stroke-width="1.5" stroke-linejoin="round"/>
    <ellipse data-structure="nuc-arcuate-medullary" cx="422" cy="628" rx="10" ry="6" stroke="#0f172a" stroke-width="1.5" stroke-linejoin="round"/>
    <ellipse data-structure="surf-cn11-exit" cx="259" cy="376" rx="4" ry="9" transform="rotate(15 259 376)" stroke="#0f172a" stroke-width="1.5" stroke-linejoin="round"/>
    <ellipse data-structure="surf-cn11-exit" cx="541" cy="376" rx="4" ry="9" transform="rotate(-15 541 376)" stroke="#0f172a" stroke-width="1.5" stroke-linejoin="round"/>
    <ellipse data-structure="surf-cn11-exit" cx="255" cy="400" rx="4" ry="9" stroke="#0f172a" stroke-width="1.5" stroke-linejoin="round"/>
    <ellipse data-structure="surf-cn11-exit" cx="545" cy="400" rx="4" ry="9" stroke="#0f172a" stroke-width="1.5" stroke-linejoin="round"/>
    <ellipse data-structure="surf-cn11-exit" cx="259" cy="424" rx="4" ry="9" transform="rotate(-15 259 424)" stroke="#0f172a" stroke-width="1.5" stroke-linejoin="round"/>
    <ellipse data-structure="surf-cn11-exit" cx="541" cy="424" rx="4" ry="9" transform="rotate(15 541 424)" stroke="#0f172a" stroke-width="1.5" stroke-linejoin="round"/>
  </g>
  <g class="plate-labels" font-family="'Segoe UI', Arial, sans-serif">
    <g class="plate-label" data-for="nuc-solitarius-caudal"><line x1="246" y1="114" x2="318" y2="334" stroke="#475569" stroke-width="1"/><circle cx="318" cy="334" r="2.5" fill="#475569"/><text x="238" y="118" text-anchor="end" font-size="12" fill="#1e293b"><tspan x="238" dy="0">Nucleus solitarius</tspan></text></g>
    <g class="plate-label" data-for="tract-spinal-trigeminal"><line x1="246" y1="168" x2="284" y2="344" stroke="#475569" stroke-width="1"/><circle cx="284" cy="344" r="2.5" fill="#475569"/><text x="238" y="172" text-anchor="end" font-size="12" fill="#1e293b"><tspan x="238" dy="0">Spinal trigeminal tract</tspan></text></g>
    <g class="plate-label" data-for="tract-internal-arcuate"><line x1="246" y1="222" x2="352" y2="366" stroke="#475569" stroke-width="1"/><circle cx="352" cy="366" r="2.5" fill="#475569"/><text x="238" y="226" text-anchor="end" font-size="12" fill="#1e293b"><tspan x="238" dy="0">Internal arcuate</tspan><tspan x="238" dy="13">fibers</tspan></text></g>
    <g class="plate-label" data-for="nuc-spinal-trigeminal"><line x1="246" y1="277" x2="302" y2="368" stroke="#475569" stroke-width="1"/><circle cx="302" cy="368" r="2.5" fill="#475569"/><text x="238" y="281" text-anchor="end" font-size="12" fill="#1e293b"><tspan x="238" dy="0">Spinal trigeminal nucleus</tspan></text></g>
    <g class="plate-label" data-for="tract-mlf"><line x1="246" y1="331" x2="388" y2="374" stroke="#475569" stroke-width="1"/><circle cx="388" cy="374" r="2.5" fill="#475569"/><text x="238" y="335" text-anchor="end" font-size="12" fill="#1e293b"><tspan x="238" dy="0">Medial longitudinal</tspan><tspan x="238" dy="13">fasciculus (MLF)</tspan></text></g>
    <g class="plate-label" data-for="surf-cn11-exit"><line x1="246" y1="385" x2="257" y2="400" stroke="#475569" stroke-width="1"/><circle cx="257" cy="400" r="2.5" fill="#475569"/><text x="238" y="389" text-anchor="end" font-size="12" fill="#1e293b"><tspan x="238" dy="0">CN XI rootlets</tspan></text></g>
    <g class="plate-label" data-for="nuc-ambiguus"><line x1="246" y1="439" x2="296" y2="402" stroke="#475569" stroke-width="1"/><circle cx="296" cy="402" r="2.5" fill="#475569"/><text x="238" y="443" text-anchor="end" font-size="12" fill="#1e293b"><tspan x="238" dy="0">Nucleus ambiguus</tspan></text></g>
    <g class="plate-label" data-for="nuc-medullary-reticular"><line x1="246" y1="493" x2="322" y2="420" stroke="#475569" stroke-width="1"/><circle cx="322" cy="420" r="2.5" fill="#475569"/><text x="238" y="497" text-anchor="end" font-size="12" fill="#1e293b"><tspan x="238" dy="0">Medullary reticular</tspan><tspan x="238" dy="13">formation</tspan></text></g>
    <g class="plate-label" data-for="tract-corticospinal-lateral"><line x1="246" y1="547" x2="300" y2="462" stroke="#475569" stroke-width="1"/><circle cx="300" cy="462" r="2.5" fill="#475569"/><text x="238" y="551" text-anchor="end" font-size="12" fill="#1e293b"><tspan x="238" dy="0">Corticospinal tract (lateral)</tspan></text></g>
    <g class="plate-label" data-for="tract-medial-lemniscus"><line x1="246" y1="602" x2="372" y2="470" stroke="#475569" stroke-width="1"/><circle cx="372" cy="470" r="2.5" fill="#475569"/><text x="238" y="606" text-anchor="end" font-size="12" fill="#1e293b"><tspan x="238" dy="0">Medial lemniscus</tspan></text></g>
    <g class="plate-label" data-for="tract-reticulospinal"><line x1="246" y1="656" x2="345" y2="512" stroke="#475569" stroke-width="1"/><circle cx="345" cy="512" r="2.5" fill="#475569"/><text x="238" y="660" text-anchor="end" font-size="12" fill="#1e293b"><tspan x="238" dy="0">Reticulospinal tract</tspan></text></g>
    <g class="plate-label" data-for="tract-pyramid"><line x1="246" y1="710" x2="362" y2="592" stroke="#475569" stroke-width="1"/><circle cx="362" cy="592" r="2.5" fill="#475569"/><text x="238" y="714" text-anchor="end" font-size="12" fill="#1e293b"><tspan x="238" dy="0">Pyramid</tspan></text></g>
    <g class="plate-label" data-for="tract-fasciculus-gracilis"><line x1="554" y1="114" x2="432" y2="256" stroke="#475569" stroke-width="1"/><circle cx="432" cy="256" r="2.5" fill="#475569"/><text x="562" y="118" text-anchor="start" font-size="12" fill="#1e293b"><tspan x="562" dy="0">Fasciculus gracilis</tspan></text></g>
    <g class="plate-label" data-for="tract-fasciculus-cuneatus"><line x1="554" y1="180" x2="490" y2="260" stroke="#475569" stroke-width="1"/><circle cx="490" cy="260" r="2.5" fill="#475569"/><text x="562" y="184" text-anchor="start" font-size="12" fill="#1e293b"><tspan x="562" dy="0">Fasciculus cuneatus</tspan></text></g>
    <g class="plate-label" data-for="nuc-nucleus-gracilis"><line x1="554" y1="246" x2="430" y2="296" stroke="#475569" stroke-width="1"/><circle cx="430" cy="296" r="2.5" fill="#475569"/><text x="562" y="250" text-anchor="start" font-size="12" fill="#1e293b"><tspan x="562" dy="0">Nucleus gracilis</tspan></text></g>
    <g class="plate-label" data-for="nuc-nucleus-cuneatus"><line x1="554" y1="313" x2="496" y2="300" stroke="#475569" stroke-width="1"/><circle cx="496" cy="300" r="2.5" fill="#475569"/><text x="562" y="317" text-anchor="start" font-size="12" fill="#1e293b"><tspan x="562" dy="0">Nucleus cuneatus</tspan></text></g>
    <g class="plate-label" data-for="tract-posterior-spinocerebellar"><line x1="554" y1="379" x2="536" y2="324" stroke="#475569" stroke-width="1"/><circle cx="536" cy="324" r="2.5" fill="#475569"/><text x="562" y="383" text-anchor="start" font-size="12" fill="#1e293b"><tspan x="562" dy="0">Posterior spinocerebellar</tspan><tspan x="562" dy="13">tract</tspan></text></g>
    <g class="plate-label" data-for="nuc-hypoglossal"><line x1="554" y1="445" x2="422" y2="342" stroke="#475569" stroke-width="1"/><circle cx="422" cy="342" r="2.5" fill="#475569"/><text x="562" y="449" text-anchor="start" font-size="12" fill="#1e293b"><tspan x="562" dy="0">Hypoglossal nucleus</tspan></text></g>
    <g class="plate-label" data-for="nuc-dmv"><line x1="554" y1="511" x2="458" y2="344" stroke="#475569" stroke-width="1"/><circle cx="458" cy="344" r="2.5" fill="#475569"/><text x="562" y="515" text-anchor="start" font-size="12" fill="#1e293b"><tspan x="562" dy="0">Dorsal motor nucleus X</tspan></text></g>
    <g class="plate-label" data-for="tract-anterior-spinocerebellar"><line x1="554" y1="578" x2="542" y2="452" stroke="#475569" stroke-width="1"/><circle cx="542" cy="452" r="2.5" fill="#475569"/><text x="562" y="582" text-anchor="start" font-size="12" fill="#1e293b"><tspan x="562" dy="0">Anterior spinocerebellar</tspan><tspan x="562" dy="13">tract</tspan></text></g>
    <g class="plate-label" data-for="tract-spinothalamic"><line x1="554" y1="644" x2="520" y2="492" stroke="#475569" stroke-width="1"/><circle cx="520" cy="492" r="2.5" fill="#475569"/><text x="562" y="648" text-anchor="start" font-size="12" fill="#1e293b"><tspan x="562" dy="0">Spinothalamic tract</tspan></text></g>
    <g class="plate-label" data-for="nuc-arcuate-medullary"><line x1="554" y1="710" x2="422" y2="628" stroke="#475569" stroke-width="1"/><circle cx="422" cy="628" r="2.5" fill="#475569"/><text x="562" y="714" text-anchor="start" font-size="12" fill="#1e293b"><tspan x="562" dy="0">Arcuate nucleus</tspan></text></g>
  </g>
</svg>
