<svg xmlns="http://www.w3.org/2000/svg" viewBox="0 0 800 800" font-family="'Segoe UI', Arial, sans-serif">
  <g class="plate-frame">
    <text class="plate-caption" x="400" y="32" text-anchor="middle" font-size="16" font-weight="600" fill="#334155">Midline sagittal - diencephalon and brainstem profile</text>
    <circle cx="400" cy="62" r="17" fill="#f8fafc" stroke="#94a3b8" stroke-width="1.2"/><text x="400" y="67.5" text-anchor="middle" font-size="15" font-weight="700" fill="#475569">S</text>
    <circle cx="52" cy="400" r="17" fill="#f8fafc" stroke="#94a3b8" stroke-width="1.2"/><text x="52" y="405.5" text-anchor="middle" font-size="15" font-weight="700" fill="#475569">P</text>
    <circle cx="748" cy="400" r="17" fill="#f8fafc" stroke="#94a3b8" stroke-width="1.2"/><text x="748" y="405.5" text-anchor="middle" font-size="15" font-weight="700" fill="#475569">A</text>
    <circle cx="400" cy="738" r="17" fill="#f8fafc" stroke="#94a3b8" stroke-width="1.2"/><text x="400" y="743.5" text-anchor="middle" font-size="15" font-weight="700" fill="#475569">I</text>
  </g>
  <path data-role="outline" d="M 312 262 C 300 320 300 380 312 430 C 316 470 320 510 316 538 C 324 556 338 570 356 578 C 382 590 410 590 436 582 C 452 592 452 608 440 620 C 402 636 368 660 352 690 C 340 712 342 736 358 754 C 372 772 394 780 414 778 C 438 776 456 762 466 740 C 474 722 482 708 486 694 C 494 662 506 628 520 600 C 528 582 536 566 540 554 C 524 536 510 514 498 500 C 484 486 462 474 448 468 C 432 462 428 446 438 434 C 462 410 498 386 524 362 C 512 342 498 324 482 312 C 460 296 400 276 312 262 Z" fill="none" stroke="#0f172a" stroke-width="1.5"/>
  <g class="plate-regions">
    <path data-structure="ctx-corpus-callosum" d="M 168 340 C 190 246 284 168 400 158 C 516 168 610 246 640 296 C 600 246 520 206 400 200 C 280 206 200 246 168 340 Z" stroke="#0f172a" stroke-width="1.5" stroke-linejoin="round"/>
    <ellipse data-structure="ctx-thalamus-envelope" cx="405" cy="292" rx="98" ry="54" stroke="#0f172a" stroke-width="1.5" stroke-linejoin="round"/>
    <path data-structure="tract-stria-medullaris" d="M 366 252 C 420 248 468 264 502 294" stroke="#0f172a" stroke-width="1.5" stroke-linejoin="round"/>
    <ellipse data-structure="nuc-habenula" cx="505" cy="297" rx="9" ry="6" stroke="#0f172a" stroke-width="1.5" stroke-linejoin="round"/>
    <circle data-structure="nuc-pineal-gland" cx="543" cy="330" r="13" stroke="#0f172a" stroke-width="1.5" stroke-linejoin="round"/>
    <ellipse data-structure="tract-posterior-commissure" cx="530" cy="362" rx="15" ry="5" stroke="#0f172a" stroke-width="1.5" stroke-linejoin="round"/>
    <path data-structure="vent-third-ventricle" d="M 394 356 C 394 348 406 348 406 356 L 406 462 C 406 470 394 470 394 462 Z" stroke="#0f172a" stroke-width="1.5" stroke-linejoin="round"/>
    <path data-structure="ctx-hypothalamus-envelope" d="M 392 478 L 408 478 C 424 512 448 542 478 560 C 452 574 410 578 366 570 C 378 540 386 508 392 478 Z" stroke="#0f172a" stroke-width="1.5" stroke-linejoin="round"/>
    <circle data-structure="surf-optic-chiasm" cx="318" cy="554" r="15" stroke="#0f172a" stroke-width="1.5" stroke-linejoin="round"/>
    <ellipse data-structure="surf-infundibulum" cx="362" cy="598" rx="7" ry="20" transform="rotate(15 362 598)" stroke="#0f172a" stroke-width="1.5" stroke-linejoin="round"/>
    <circle data-structure="nuc-mammillary-body" cx="446" cy="568" r="12" stroke="#0f172a" stroke-width="1.5" stroke-linejoin="round"/>
    <ellipse data-structure="nuc-pag" cx="468" cy="514" rx="80" ry="23" transform="rotate(33 468 514)" stroke="#0f172a" stroke-width="1.5" stroke-linejoin="round"/>
    <ellipse data-structure="vent-cerebral-aqueduct" cx="467" cy="513" rx="72" ry="7" transform="rotate(33 467 513)" stroke="#0f172a" stroke-width="1.5" stroke-linejoin="round"/>
    <ellipse data-structure="nuc-superior-colliculus" cx="446" cy="466" rx="25" ry="14" transform="rotate(33 446 466)" stroke="#0f172a" stroke-width="1.5" stroke-linejoin="round"/>
    <ellipse data-structure="nuc-inferior-colliculus" cx="498" cy="489" rx="23" ry="13" transform="rotate(33 498 489)" stroke="#0f172a" stroke-width="1.5" stroke-linejoin="round"/>
    <ellipse data-structure="nuc-pretectal" cx="462" cy="448" rx="11" ry="7" transform="rotate(33 462 448)" stroke="#0f172a" stroke-width="1.5" stroke-dasharray="5 4" stroke-linejoin="round"/>
    <ellipse data-structure="nuc-dorsal-raphe" cx="452" cy="486" rx="5" ry="12" transform="rotate(33 452 486)" stroke="#0f172a" stroke-width="1.5" stroke-dasharray="2 5" stroke-linejoin="round"/>
    <path data-structure="vent-fourth-ventricle" d="M 522 550 C 510 592 501 638 497 682 L 509 688 C 518 646 532 600 545 560 C 536 552 528 548 522 550 Z" stroke="#0f172a" stroke-width="1.5" stroke-linejoin="round"/>
    <ellipse data-structure="nuc-fastigial" cx="512" cy="600" rx="8" ry="12" transform="rotate(15 512 600)" stroke="#0f172a" stroke-width="1.5" stroke-dasharray="5 4" stroke-linejoin="round"/>
    <ellipse data-structure="surf-obex" cx="494" cy="694" rx="8" ry="5" stroke="#0f172a" stroke-width="1.5" stroke-linejoin="round"/>
    <path data-structure="ctx-cerebellum" d="M 528 548 C 570 542 604 560 620 596 C 636 634 630 676 604 704 C 580 728 546 734 518 720 C 540 664 542 604 528 548 Z" stroke="#0f172a" stroke-width="1.5" stroke-linejoin="round"/>
    <ellipse data-structure="surf-vermis" cx="598" cy="632" rx="14" ry="66" transform="rotate(12 598 632)" stroke="#0f172a" stroke-width="1.5" stroke-linejoin="round"/>
    <ellipse data-structure="ctx-pontine-nuclei" cx="385" cy="655" rx="45" ry="42" stroke="#0f172a" stroke-width="1.5" stroke-linejoin="round"/>
    <ellipse data-structure="ctx-pontine-fibers" cx="395" cy="650" rx="7" ry="38" stroke="#0f172a" stroke-width="1.5" stroke-linejoin="round"/>
    <ellipse data-structure="tract-pyramid" cx="390" cy="738" rx="13" ry="28" stroke="#0f172a" stroke-width="1.5" stroke-linejoin="round"/>
    <path data-structure="tract-mlf" d="M 414 498 C 430 560 448 624 468 684" stroke="#0f172a" stroke-width="1.5" stroke-dasharray="2 5" stroke-linejoin="round"/>
  </g>
  <g class="plate-labels" font-family="'Segoe UI', Arial, sans-serif">
    <g class="plate-label" data-for="ctx-corpus-callosum"><line x1="150" y1="133" x2="222" y2="188" stroke="#475569" stroke-width="1"/><circle cx="222" cy="188" r="2.5" fill="#475569"/><text x="140" y="128" text-anchor="start" font-size="12" fill="#1e293b"><tspan x="140" dy="0">Corpus callosum</tspan></text></g>
    <g class="plate-label" data-for="ctx-thalamus-envelope"><line x1="318" y1="254" x2="324" y2="280" stroke="#475569" stroke-width="1"/><circle cx="324" cy="280" r="2.5" fill="#475569"/><text x="314" y="252" text-anchor="end" font-size="12" fill="#1e293b"><tspan x="314" dy="0">Thalamus (mass)</tspan></text></g>
    <g class="plate-label" data-for="tract-stria-medullaris"><line x1="420" y1="228" x2="430" y2="254" stroke="#475569" stroke-width="1"/><circle cx="430" cy="254" r="2.5" fill="#475569"/><text x="420" y="224" text-anchor="middle" font-size="12" fill="#1e293b"><tspan x="420" dy="0">Stria medullaris</tspan></text></g>
    <g class="plate-label" data-for="nuc-habenula"><line x1="532" y1="266" x2="508" y2="296" stroke="#475569" stroke-width="1"/><circle cx="508" cy="296" r="2.5" fill="#475569"/><text x="560" y="266" text-anchor="end" font-size="12" fill="#1e293b"><tspan x="560" dy="0">Habenula</tspan></text></g>
    <g class="plate-label" data-for="nuc-pineal-gland"><line x1="588" y1="312" x2="557" y2="330" stroke="#475569" stroke-width="1"/><circle cx="557" cy="330" r="2.5" fill="#475569"/><text x="592" y="310" text-anchor="start" font-size="12" fill="#1e293b"><tspan x="592" dy="0">Pineal gland</tspan></text></g>
    <g class="plate-label" data-for="tract-posterior-commissure"><line x1="598" y1="366" x2="546" y2="364" stroke="#475569" stroke-width="1"/><circle cx="546" cy="364" r="2.5" fill="#475569"/><text x="602" y="362" text-anchor="start" font-size="12" fill="#1e293b"><tspan x="602" dy="0">Posterior</tspan><tspan x="602" dy="13">commissure</tspan></text></g>
    <g class="plate-label" data-for="vent-third-ventricle"><line x1="302" y1="372" x2="392" y2="382" stroke="#475569" stroke-width="1"/><circle cx="392" cy="382" r="2.5" fill="#475569"/><text x="298" y="372" text-anchor="end" font-size="12" fill="#1e293b"><tspan x="298" dy="0">Third ventricle</tspan></text></g>
    <g class="plate-label" data-for="ctx-hypothalamus-envelope"><line x1="302" y1="459" x2="380" y2="498" stroke="#475569" stroke-width="1"/><circle cx="380" cy="498" r="2.5" fill="#475569"/><text x="298" y="458" text-anchor="end" font-size="12" fill="#1e293b"><tspan x="298" dy="0">Hypothalamus</tspan></text></g>
    <g class="plate-label" data-for="surf-optic-chiasm"><line x1="257" y1="556" x2="301" y2="556" stroke="#475569" stroke-width="1"/><circle cx="301" cy="556" r="2.5" fill="#475569"/><text x="253" y="552" text-anchor="end" font-size="12" fill="#1e293b"><tspan x="253" dy="0">Optic chiasm</tspan></text></g>
    <g class="plate-label" data-for="surf-infundibulum"><line x1="287" y1="616" x2="354" y2="604" stroke="#475569" stroke-width="1"/><circle cx="354" cy="604" r="2.5" fill="#475569"/><text x="283" y="620" text-anchor="end" font-size="12" fill="#1e293b"><tspan x="283" dy="0">Infundibulum</tspan></text></g>
    <g class="plate-label" data-for="nuc-mammillary-body"><line x1="436" y1="641" x2="456" y2="576" stroke="#475569" stroke-width="1"/><circle cx="456" cy="576" r="2.5" fill="#475569"/><text x="440" y="645" text-anchor="start" font-size="12" fill="#1e293b"><tspan x="440" dy="0">Mammillary body</tspan></text></g>
    <g class="plate-label" data-for="nuc-pretectal"><line x1="583" y1="424" x2="462" y2="448" stroke="#475569" stroke-width="1"/><circle cx="462" cy="448" r="2.5" fill="#475569"/><text x="587" y="420" text-anchor="start" font-size="12" fill="#1e293b"><tspan x="587" dy="0">Pretectal area (dashed)</tspan></text></g>
    <g class="plate-label" data-for="nuc-superior-colliculus"><line x1="583" y1="454" x2="452" y2="466" stroke="#475569" stroke-width="1"/><circle cx="452" cy="466" r="2.5" fill="#475569"/><text x="587" y="450" text-anchor="start" font-size="12" fill="#1e293b"><tspan x="587" dy="0">Superior colliculus</tspan></text></g>
    <g class="plate-label" data-for="nuc-dorsal-raphe"><line x1="583" y1="504" x2="452" y2="486" stroke="#475569" stroke-width="1"/><circle cx="452" cy="486" r="2.5" fill="#475569"/><text x="587" y="500" text-anchor="start" font-size="12" fill="#1e293b"><tspan x="587" dy="0">Dorsal raphe (dashed)</tspan></text></g>
    <g class="plate-label" data-for="nuc-inferior-colliculus"><line x1="583" y1="549" x2="510" y2="499" stroke="#475569" stroke-width="1"/><circle cx="510" cy="499" r="2.5" fill="#475569"/><text x="587" y="545" text-anchor="start" font-size="12" fill="#1e293b"><tspan x="587" dy="0">Inferior colliculus</tspan></text></g>
    <g class="plate-label" data-for="nuc-pag"><line x1="583" y1="594" x2="462" y2="524" stroke="#475569" stroke-width="1"/><circle cx="462" cy="524" r="2.5" fill="#475569"/><text x="587" y="590" text-anchor="start" font-size="12" fill="#1e293b"><tspan x="587" dy="0">Periaqueductal gray</tspan></text></g>
    <g class="plate-label" data-for="vent-cerebral-aqueduct"><line x1="583" y1="639" x2="467" y2="513" stroke="#475569" stroke-width="1"/><circle cx="467" cy="513" r="2.5" fill="#475569"/><text x="587" y="635" text-anchor="start" font-size="12" fill="#1e293b"><tspan x="587" dy="0">Cerebral aqueduct</tspan></text></g>
    <g class="plate-label" data-for="vent-fourth-ventricle"><line x1="598" y1="724" x2="532" y2="626" stroke="#475569" stroke-width="1"/><circle cx="532" cy="626" r="2.5" fill="#475569"/><text x="602" y="728" text-anchor="start" font-size="12" fill="#1e293b"><tspan x="602" dy="0">Fourth ventricle</tspan></text></g>
    <g class="plate-label" data-for="nuc-fastigial"><line x1="583" y1="684" x2="518" y2="608" stroke="#475569" stroke-width="1"/><circle cx="518" cy="608" r="2.5" fill="#475569"/><text x="587" y="684" text-anchor="start" font-size="12" fill="#1e293b"><tspan x="587" dy="0">Fastigial nucleus (dashed)</tspan></text></g>
    <g class="plate-label" data-for="surf-obex"><line x1="598" y1="764" x2="496" y2="695" stroke="#475569" stroke-width="1"/><circle cx="496" cy="695" r="2.5" fill="#475569"/><text x="602" y="768" text-anchor="start" font-size="12" fill="#1e293b"><tspan x="602" dy="0">Obex</tspan></text></g>
    <g class="plate-label" data-for="ctx-cerebellum"><line x1="696" y1="611" x2="630" y2="604" stroke="#475569" stroke-width="1"/><circle cx="630" cy="604" r="2.5" fill="#475569"/><text x="700" y="615" text-anchor="start" font-size="12" fill="#1e293b"><tspan x="700" dy="0">Cerebellum</tspan></text></g>
    <g class="plate-label" data-for="surf-vermis"><line x1="663" y1="664" x2="614" y2="642" stroke="#475569" stroke-width="1"/><circle cx="614" cy="642" r="2.5" fill="#475569"/><text x="667" y="668" text-anchor="start" font-size="12" fill="#1e293b"><tspan x="667" dy="0">Vermis</tspan></text></g>
    <g class="plate-label" data-for="ctx-pontine-nuclei"><line x1="274" y1="696" x2="341" y2="672" stroke="#475569" stroke-width="1"/><circle cx="341" cy="672" r="2.5" fill="#475569"/><text x="270" y="700" text-anchor="end" font-size="12" fill="#1e293b"><tspan x="270" dy="0">Basis pontis</tspan></text></g>
    <g class="plate-label" data-for="ctx-pontine-fibers"><line x1="242" y1="648" x2="386" y2="650" stroke="#475569" stroke-width="1"/><circle cx="386" cy="650" r="2.5" fill="#475569"/><text x="238" y="644" text-anchor="end" font-size="12" fill="#1e293b"><tspan x="238" dy="0">Pontine fibers</tspan></text></g>
    <g class="plate-label" data-for="tract-pyramid"><line x1="274" y1="756" x2="377" y2="742" stroke="#475569" stroke-width="1"/><circle cx="377" cy="742" r="2.5" fill="#475569"/><text x="270" y="760" text-anchor="end" font-size="12" fill="#1e293b"><tspan x="270" dy="0">Pyramid (medulla)</tspan></text></g>
    <g class="plate-label" data-for="tract-mlf"><line x1="302" y1="589" x2="434" y2="616" stroke="#475569" stroke-width="1"/><circle cx="434" cy="616" r="2.5" fill="#475569"/><text x="298" y="585" text-anchor="end" font-size="12" fill="#1e293b"><tspan x="298" dy="0">MLF (dashed)</tspan></text></g>
  </g>
</svg>
